<svg viewBox="0 0 200 200" xmlns="http://www.w3.org/2000/svg">
    <!-- Air Drops (10%) -->
    <path d="
        M 100,100 
        m -80, 0 
        a 80,80 0 0,1 36,80 
        l 0,-160 
        a 80,80 0 0,0 -160,0 
        l 0,160 
        a 80,80 0 0,1 -36,-80 
        Z" 
      fill="#4CAF50" stroke="white" stroke-width="2"/>
    
    <!-- Public Sale (20%) -->
    <path d="
        M 100,100 
        m -80, 0 
        a 80,80 0 0,1 126,80 
        l 0,-160 
        a 80,80 0 0,0 -160,0 
        l 0,160 
        a 80,80 0 0,1 -36,-80 
        Z" 
      fill="#2196F3" stroke="white" stroke-width="2"/>
    
    <!-- Team Allocation (20%) -->
    <path d="
        M 100,100 
        m -80, 0 
        a 80,80 0 0,1 216,80 
        l 0,-160 
        a 80,80 0 0,0 -160,0 
        l 0,160 
        a 80,80 0 0,1 -36,-80 
        Z" 
      fill="#9C27B0" stroke="white" stroke-width="2"/>
    
    <!-- Investors Allocation (20%) -->
    <path d="
        M 100,100 
        m -80, 0 
        a 80,80 0 0,1 306,80 
        l 0,-160 
        a 80,80 0 0,0 -160,0 
        l 0,160 
        a 80,80 0 0,1 -36,-80 
        Z" 
      fill="#FF9800" stroke="white" stroke-width="2"/>
    
    <!-- Treasury (20%) -->
    <path d="
        M 100,100 
        m -80, 0 
        a 80,80 0 0,1 36,-80 
        l 0,160 
        a 80,80 0 0,0 160,0 
        l 0,-160 
        a 80,80 0 0,1 -36,80 
        Z" 
      fill="#FF5722" stroke="white" stroke-width="2"/>
    
    <!-- Liquidity Pools (10%) -->
    <path d="
        M 100,100 
        m -80, 0 
        a 80,80 0 0,1 0,-80 
        l 0,160 
        a 80,80 0 0,0 160,0 
        l 0,-160 
        a 80,80 0 0,1 -36,80 
        Z" 
      fill="#00BCD4" stroke="white" stroke-width="2"/>
</svg>